<?xml version="1.0" encoding="utf-8"?>
<!-- Generator: Adobe Illustrator 19.0.0, SVG Export Plug-In . SVG Version: 6.00 Build 0)  -->
<!DOCTYPE svg PUBLIC "-//W3C//DTD SVG 1.1//EN" "http://www.w3.org/Graphics/SVG/1.1/DTD/svg11.dtd">
<svg version="1.1" id="Calque_1" xmlns="http://www.w3.org/2000/svg" xmlns:xlink="http://www.w3.org/1999/xlink" x="0px" y="0px"
	 viewBox="-316 364.8 230 72.5" style="enable-background:new -316 364.8 230 72.5;" xml:space="preserve">
<style type="text/css">
	.st0{fill:#FFFFFF;}
</style>
<g id="Calque_1_1_">
	<g id="XMLID_1283_">
		<path id="XMLID_170_" class="st0" d="M-212.5,399.8h-7.7c-0.3,0-0.5-0.2-0.5-0.5v-4.8c0-0.3,0.2-0.5,0.5-0.5
			c0.3,0,0.5,0.2,0.5,0.5v4.3h6.7v-3.2h-3.3c-0.3,0-0.5-0.2-0.5-0.5s0.2-0.5,0.5-0.5h3.8c0.3,0,0.5,0.2,0.5,0.5v4.2
			C-212,399.6-212.3,399.8-212.5,399.8z"/>
	</g>
	<g id="XMLID_741_">
		<path id="XMLID_169_" class="st0" d="M-212.5,391.4h-4.1c-0.3,0-0.5-0.2-0.5-0.5s0.2-0.5,0.5-0.5h4.1c0.3,0,0.5,0.2,0.5,0.5
			S-212.3,391.4-212.5,391.4z"/>
	</g>
	<g id="XMLID_738_">
		<polygon id="XMLID_171_" class="st0" points="-205.5,390.9 -203.6,395.1 -201.6,399.3 -205.5,399.3 -209.3,399.3 -207.4,395.1 		
			"/>
	</g>
	<g id="XMLID_737_">
		<polygon id="XMLID_1_" class="st0" points="-183.7,390.9 -181.8,395.1 -179.8,399.3 -183.7,399.3 -187.5,399.3 -185.6,395.1 		"/>
	</g>
	<g id="XMLID_736_">
		<path id="XMLID_166_" class="st0" d="M-190.7,391.4h-7.7c-0.3,0-0.5-0.2-0.5-0.5s0.2-0.5,0.5-0.5h7.7c0.3,0,0.5,0.2,0.5,0.5
			S-190.5,391.4-190.7,391.4z"/>
	</g>
	<g id="XMLID_735_">
		<path id="XMLID_165_" class="st0" d="M-190.7,395.6h-7.7c-0.3,0-0.5-0.2-0.5-0.5s0.2-0.5,0.5-0.5h7.7c0.3,0,0.5,0.2,0.5,0.5
			S-190.5,395.6-190.7,395.6z"/>
	</g>
	<g id="XMLID_734_">
		<path id="XMLID_164_" class="st0" d="M-190.7,399.8h-7.7c-0.3,0-0.5-0.2-0.5-0.5s0.2-0.5,0.5-0.5h7.7c0.3,0,0.5,0.2,0.5,0.5
			S-190.5,399.8-190.7,399.8z"/>
	</g>
</g>
<g id="Calque_2">
	<g id="XMLID_740_">
		<path id="XMLID_168_" class="st0" d="M-218.8,391.4h-2.9c-0.3,0-0.5-0.2-0.5-0.5s0.2-0.5,0.5-0.5h2.9c0.3,0,0.5,0.2,0.5,0.5
			S-218.5,391.4-218.8,391.4z"/>
	</g>
	<g id="XMLID_739_">
		<path id="XMLID_167_" class="st0" d="M-220.2,392.9c-0.3,0-0.5-0.2-0.5-0.5v-2.9c0-0.3,0.2-0.5,0.5-0.5c0.3,0,0.5,0.2,0.5,0.5v2.9
			C-219.7,392.7-219.9,392.9-220.2,392.9z"/>
	</g>
</g>
</svg>
