<?xml version="1.0" encoding="utf-8"?>
<!-- Generator: Adobe Illustrator 19.0.0, SVG Export Plug-In . SVG Version: 6.00 Build 0)  -->
<!DOCTYPE svg PUBLIC "-//W3C//DTD SVG 1.1//EN" "http://www.w3.org/Graphics/SVG/1.1/DTD/svg11.dtd">
<svg version="1.1" xmlns="http://www.w3.org/2000/svg" xmlns:xlink="http://www.w3.org/1999/xlink" x="0px" y="0px"
	 viewBox="-420 320 438 162" style="enable-background:new -420 320 438 162;" xml:space="preserve">
<style type="text/css">
	.st0{fill:#FFFFFF;}
	.st1{opacity:0.8;}
	
	svg * {
          -webkit-transition: all 0.3s;
      }
	
	@media all and (min-width: 151px){
       #croix {
            -webkit-animation: round 3s infinite;
            transform-origin: center;
        }
        
         #trangle1 {
            -webkit-animation: shine 3s infinite;
        }
        
        #trangle2 {
            -webkit-animation: shine 5s infinite;
        }
        
        
        
         @-webkit-keyframes shine {
				0%, 50%, 100% {
			    opacity: 1;
			  }
			
			  25%, 75% {
			    opacity: 0.2;
			  }

	  }

        
        @-webkit-keyframes round {
            0%   { transform: rotate(0deg); }
            50%  { transform: rotate(180deg); }
            100% { transform: rotate(360deg); }
        }
	
</style>
<g id="Calque_1">
	<g id="XMLID_1283_">
		<path id="XMLID_170_" class="st0" d="M-272.8,398.2h-48.6c-1.7,0-3.2-1.3-3.2-3.2v-30.4c0-1.7,1.3-3.2,3.2-3.2
			c1.9,0,3.2,1.3,3.2,3.2v27.1h42.2v-20.2h-21.1c-1.7,0-3.2-1.3-3.2-3.2c0-1.9,1.3-3.2,3.2-3.2h24.3c1.7,0,3.2,1.3,3.2,3.2V395
			C-269.6,396.7-271.1,398.2-272.8,398.2z"/>
	</g>
	<g id="XMLID_741_">
		<path id="XMLID_169_" class="st0" d="M-272.8,345h-25.8c-1.7,0-3.2-1.3-3.2-3.2c0-1.7,1.3-3.2,3.2-3.2h25.8c1.7,0,3.2,1.3,3.2,3.2
			S-271.1,345-272.8,345z"/>
	</g>
	<g id="XMLID_736_">
		<path id="XMLID_166_" class="st0" d="M-135,345h-48.6c-1.7,0-3.2-1.3-3.2-3.2c0-1.7,1.3-3.2,3.2-3.2h48.6c1.7,0,3.2,1.3,3.2,3.2
			S-133.1,345-135,345z"/>
	</g>
	<g id="XMLID_735_">
		<path id="XMLID_165_" class="st0" d="M-135,371.6h-48.6c-1.7,0-3.2-1.3-3.2-3.2s1.3-3.2,3.2-3.2h48.6c1.7,0,3.2,1.3,3.2,3.2
			S-133.1,371.6-135,371.6z"/>
	</g>
	<g id="XMLID_734_">
		<path id="XMLID_164_" class="st0" d="M-135,398.2h-48.6c-1.7,0-3.2-1.3-3.2-3.2c0-1.9,1.3-3.2,3.2-3.2h48.6c1.7,0,3.2,1.3,3.2,3.2
			C-131.8,396.9-133.1,398.2-135,398.2z"/>
	</g>
	<g id="XMLID_727_" class="st1">
		<path id="XMLID_88_" class="st0" d="M-340.8,457c1.2,0,2.2,0.4,3.1,1.2c0.1,0.1,0.1,0.3,0,0.4c-0.2,0.2-0.4,0.4-0.6,0.6
			c-0.1,0.1-0.2,0.1-0.3,0c-0.6-0.5-1.4-0.9-2.2-0.9c-1.8,0-3.2,1.5-3.2,3.3s1.4,3.3,3.2,3.3c1.1,0,1.8-0.4,1.9-0.4v-1.4h-1.3
			c-0.1,0-0.2-0.1-0.2-0.2v-0.7c0-0.1,0.1-0.2,0.2-0.2h2.3c0.1,0,0.2,0.1,0.2,0.2c0,1,0,2.1,0,3.1c0,0.1-0.1,0.2-0.1,0.2
			s-1.3,0.8-3.2,0.8c-2.5,0-4.6-2-4.6-4.6C-345.4,459.1-343.3,457-340.8,457z"/>
		<path id="XMLID_90_" class="st0" d="M-336.2,465.8l3.9-8.6c0-0.1,0.2-0.1,0.2-0.1h0.1c0.1,0,0.2,0.1,0.2,0.1l3.9,8.6
			c0.1,0.2,0,0.3-0.2,0.3h-0.8c-0.2,0-0.2-0.1-0.3-0.2l-0.8-1.7h-4.2c-0.3,0.6-0.5,1.2-0.8,1.7c0,0.1-0.1,0.2-0.3,0.2h-0.8
			C-336.1,466.1-336.2,465.9-336.2,465.8z M-330.4,463.1l-1.6-3.5h-0.1l-1.6,3.5H-330.4z"/>
		<path id="XMLID_93_" class="st0" d="M-325.9,457.4c0-0.1,0.1-0.2,0.2-0.2h5.1c0.1,0,0.2,0.1,0.2,0.2v0.7c0,0.1-0.1,0.2-0.2,0.2h-4
			v2.6h3.4c0.1,0,0.2,0.1,0.2,0.2v0.7c0,0.1-0.1,0.2-0.2,0.2h-3.4v2.7h4c0.1,0,0.2,0.1,0.2,0.2v0.7c0,0.1-0.1,0.2-0.2,0.2h-5.1
			c-0.1,0-0.2-0.1-0.2-0.2V457.4z"/>
		<path id="XMLID_95_" class="st0" d="M-319.1,465.8l3.9-8.6c0-0.1,0.2-0.1,0.2-0.1h0.1c0.1,0,0.2,0.1,0.2,0.1l3.9,8.6
			c0.1,0.2,0,0.3-0.2,0.3h-0.8c-0.2,0-0.2-0.1-0.3-0.2l-0.8-1.7h-4.2c-0.3,0.6-0.5,1.2-0.8,1.7c0,0.1-0.1,0.2-0.3,0.2h-0.8
			C-319,466.1-319.1,465.9-319.1,465.8z M-313.3,463.1l-1.6-3.5h-0.1l-1.6,3.5H-313.3z"/>
		<path id="XMLID_98_" class="st0" d="M-306.6,457.4c0-0.1,0.1-0.2,0.2-0.2h0.8c0.1,0,0.2,0.1,0.2,0.2v8.5c0,0.1-0.1,0.2-0.2,0.2
			h-0.8c-0.1,0-0.2-0.1-0.2-0.2V457.4z"/>
		<path id="XMLID_100_" class="st0" d="M-302.2,457.3c0-0.1,0.1-0.2,0.2-0.2h0.3l5.5,6.4l0,0v-6c0-0.1,0.1-0.2,0.2-0.2h0.8
			c0.1,0,0.2,0.1,0.2,0.2v8.6c0,0.1-0.1,0.2-0.2,0.2h-0.3l-5.5-6.6l0,0v6.2c0,0.1-0.1,0.2-0.2,0.2h-0.8c-0.1,0-0.2-0.1-0.2-0.2
			V457.3z"/>
		<path id="XMLID_102_" class="st0" d="M-291.8,457.4c0-0.1,0.1-0.2,0.2-0.2h5.1c0.1,0,0.2,0.1,0.2,0.2v0.7c0,0.1-0.1,0.2-0.2,0.2
			h-4v3h3.4c0.1,0,0.2,0.1,0.2,0.2v0.7c0,0.1-0.1,0.2-0.2,0.2h-3.4v3.4c0,0.1-0.1,0.2-0.2,0.2h-0.8c-0.1,0-0.2-0.1-0.2-0.2
			L-291.8,457.4L-291.8,457.4L-291.8,457.4z"/>
		<path id="XMLID_104_" class="st0" d="M-280,457c2.6,0,4.6,2.1,4.6,4.6c0,2.6-2,4.6-4.6,4.6s-4.6-2-4.6-4.6
			C-284.6,459.1-282.6,457-280,457z M-280,465c1.8,0,3.3-1.5,3.3-3.3s-1.5-3.3-3.3-3.3s-3.3,1.5-3.3,3.3
			C-283.4,463.5-281.9,465-280,465z"/>
		<path id="XMLID_107_" class="st0" d="M-273.1,457.4c0-0.1,0.1-0.2,0.2-0.2h3.5c1.5,0,2.8,1.2,2.8,2.7c0,1.2-0.8,2.1-1.9,2.6
			l1.8,3.2c0.1,0.2,0,0.4-0.2,0.4h-1c-0.1,0-0.2-0.1-0.2-0.1l-1.7-3.4h-1.9v3.3c0,0.1-0.1,0.2-0.2,0.2h-0.8c-0.1,0-0.2-0.1-0.2-0.2
			v-8.5H-273.1z M-269.4,461.5c0.8,0,1.6-0.7,1.6-1.6c0-0.8-0.7-1.5-1.6-1.5h-2.3v3.1H-269.4z"/>
		<path id="XMLID_110_" class="st0" d="M-263,457.2c0-0.1,0.1-0.2,0.2-0.2h0.2c0.1,0,0.2,0.1,0.2,0.1l2.7,6.5h0.1l2.7-6.5
			c0-0.1,0.1-0.1,0.2-0.1h0.2c0.1,0,0.2,0.1,0.2,0.2l1.6,8.6c0,0.2-0.1,0.3-0.2,0.3h-0.8c-0.1,0-0.2-0.1-0.2-0.2l-0.9-5.7l0,0
			l-2.3,5.9c0,0.1-0.1,0.1-0.2,0.1h-0.2c-0.1,0-0.2-0.1-0.2-0.1l-2.3-5.9c0,0,0,0-0.1,0l-0.9,5.7c0,0.1-0.1,0.2-0.2,0.2h-0.8
			c-0.2,0-0.3-0.1-0.2-0.3L-263,457.2z"/>
		<path id="XMLID_112_" class="st0" d="M-253.6,465.8l3.9-8.6c0-0.1,0.2-0.1,0.2-0.1h0.1c0.1,0,0.2,0.1,0.2,0.1l3.9,8.6
			c0.1,0.2,0,0.3-0.2,0.3h-0.8c-0.2,0-0.2-0.1-0.3-0.2l-0.8-1.7h-4.2c-0.3,0.6-0.5,1.2-0.8,1.7c0,0.1-0.1,0.2-0.3,0.2h-0.6
			C-253.5,466.1-253.6,465.9-253.6,465.8z M-247.8,463.1l-1.6-3.5h-0.1l-1.6,3.5H-247.8z"/>
		<path id="XMLID_115_" class="st0" d="M-242.6,458.4h-2.1c-0.1,0-0.2-0.1-0.2-0.2v-0.7c0-0.1,0.1-0.2,0.2-0.2h5.5
			c0.1,0,0.2,0.1,0.2,0.2v0.7c0,0.1-0.1,0.2-0.2,0.2h-2.1v7.5c0,0.1-0.1,0.2-0.2,0.2h-0.8c-0.1,0-0.2-0.1-0.2-0.2L-242.6,458.4
			L-242.6,458.4z"/>
		<path id="XMLID_117_" class="st0" d="M-237,457.4c0-0.1,0.1-0.2,0.2-0.2h0.8c0.1,0,0.2,0.1,0.2,0.2v8.5c0,0.1-0.1,0.2-0.2,0.2
			h-0.8c-0.1,0-0.2-0.1-0.2-0.2V457.4z"/>
		<path id="XMLID_119_" class="st0" d="M-228.7,457c2.6,0,4.6,2.1,4.6,4.6c0,2.6-2,4.6-4.6,4.6s-4.6-2-4.6-4.6
			C-233.3,459.1-231.2,457-228.7,457z M-228.7,465c1.8,0,3.3-1.5,3.3-3.3s-1.5-3.3-3.3-3.3s-3.3,1.5-3.3,3.3S-230.5,465-228.7,465z"
			/>
		<path id="XMLID_122_" class="st0" d="M-221.7,457.3c0-0.1,0.1-0.2,0.2-0.2h0.3l5.5,6.4l0,0v-6c0-0.1,0.1-0.2,0.2-0.2h0.8
			c0.1,0,0.2,0.1,0.2,0.2v8.6c0,0.1-0.1,0.2-0.2,0.2h-0.3l-5.5-6.6l0,0v6.2c0,0.1-0.1,0.2-0.2,0.2h-0.8c-0.1,0-0.2-0.1-0.2-0.2
			V457.3z"/>
		<path id="XMLID_124_" class="st0" d="M-207.8,458.4h-2.1c-0.1,0-0.2-0.1-0.2-0.2v-0.7c0-0.1,0.1-0.2,0.2-0.2h5.5
			c0.1,0,0.2,0.1,0.2,0.2v0.7c0,0.1-0.1,0.2-0.2,0.2h-2.1v7.5c0,0.1-0.1,0.2-0.2,0.2h-0.8c-0.1,0-0.2-0.1-0.2-0.2L-207.8,458.4
			L-207.8,458.4z"/>
		<path id="XMLID_126_" class="st0" d="M-202.2,457.4c0-0.1,0.1-0.2,0.2-0.2h5.1c0.1,0,0.2,0.1,0.2,0.2v0.7c0,0.1-0.1,0.2-0.2,0.2
			h-4v2.6h3.4c0.1,0,0.2,0.1,0.2,0.2v0.7c0,0.1-0.1,0.2-0.2,0.2h-3.4v2.7h4c0.1,0,0.2,0.1,0.2,0.2v0.7c0,0.1-0.1,0.2-0.2,0.2h-5.1
			c-0.1,0-0.2-0.1-0.2-0.2V457.4z"/>
		<path id="XMLID_128_" class="st0" d="M-190.2,457c1.3,0,2.2,0.4,3.1,1.2c0.1,0.1,0.1,0.3,0,0.4l-0.6,0.6c-0.1,0.1-0.2,0.1-0.3,0
			c-0.6-0.5-1.4-0.9-2.2-0.9c-1.8,0-3.2,1.5-3.2,3.3s1.4,3.3,3.2,3.3c0.9,0,1.6-0.4,2.2-0.8c0.1-0.1,0.2-0.1,0.3,0l0.6,0.6
			c0.1,0.1,0.1,0.3,0,0.3c-0.9,0.8-2,1.2-3.1,1.2c-2.6,0-4.6-2-4.6-4.6C-194.8,459.1-192.7,457-190.2,457z"/>
		<path id="XMLID_130_" class="st0" d="M-184.7,457.4c0-0.1,0.1-0.2,0.2-0.2h0.8c0.1,0,0.2,0.1,0.2,0.2v3.6h4.7v-3.6
			c0-0.1,0.1-0.2,0.2-0.2h0.8c0.1,0,0.2,0.1,0.2,0.2v8.5c0,0.1-0.1,0.2-0.2,0.2h-0.8c-0.1,0-0.2-0.1-0.2-0.2v-3.7h-4.7v3.7
			c0,0.1-0.1,0.2-0.2,0.2h-0.8c-0.1,0-0.2-0.1-0.2-0.2V457.4z"/>
		<path id="XMLID_132_" class="st0" d="M-174.3,457.3c0-0.1,0.1-0.2,0.2-0.2h0.3l5.5,6.4l0,0v-6c0-0.1,0.1-0.2,0.2-0.2h0.8
			c0.1,0,0.2,0.1,0.2,0.2v8.6c0,0.1-0.1,0.2-0.2,0.2h-0.3l-5.5-6.6l0,0v6.2c0,0.1-0.1,0.2-0.2,0.2h-0.8c-0.1,0-0.2-0.1-0.2-0.2
			V457.3z"/>
		<path id="XMLID_134_" class="st0" d="M-159.9,457c2.6,0,4.6,2.1,4.6,4.6c0,2.6-2,4.6-4.6,4.6s-4.6-2-4.6-4.6
			C-164.5,459.1-162.5,457-159.9,457z M-159.9,465c1.8,0,3.3-1.5,3.3-3.3s-1.5-3.3-3.3-3.3s-3.3,1.5-3.3,3.3S-161.7,465-159.9,465z"
			/>
		<path id="XMLID_137_" class="st0" d="M-152.9,457.4c0-0.1,0.1-0.2,0.2-0.2h0.8c0.1,0,0.2,0.1,0.2,0.2v7.5h3.5
			c0.1,0,0.2,0.1,0.2,0.2v0.7c0,0.1-0.1,0.2-0.2,0.2h-4.5c-0.1,0-0.2-0.1-0.2-0.2V457.4z"/>
		<path id="XMLID_139_" class="st0" d="M-142.2,457c2.6,0,4.6,2.1,4.6,4.6c0,2.6-2,4.6-4.6,4.6s-4.6-2-4.6-4.6
			C-146.8,459.1-144.7,457-142.2,457z M-142.2,465c1.8,0,3.3-1.5,3.3-3.3s-1.5-3.3-3.3-3.3s-3.3,1.5-3.3,3.3S-144,465-142.2,465z"/>
		<path id="XMLID_142_" class="st0" d="M-131.2,457c1.2,0,2.2,0.4,3.1,1.2c0.1,0.1,0.1,0.3,0,0.4c-0.2,0.2-0.4,0.4-0.6,0.6
			c-0.1,0.1-0.2,0.1-0.3,0c-0.6-0.5-1.4-0.9-2.2-0.9c-1.8,0-3.2,1.5-3.2,3.3s1.4,3.3,3.2,3.3c1.1,0,1.8-0.4,1.9-0.4v-1.4h-1.3
			c-0.1,0-0.2-0.1-0.2-0.2v-0.7c0-0.1,0.1-0.2,0.2-0.2h2.3c0.1,0,0.2,0.1,0.2,0.2c0,1,0,2.1,0,3.1c0,0.1-0.1,0.2-0.1,0.2
			s-1.3,0.8-3.2,0.8c-2.5,0-4.6-2-4.6-4.6C-135.8,459.1-133.8,457-131.2,457z"/>
		<path id="XMLID_144_" class="st0" d="M-123.7,461.8l-3-4.3c-0.1-0.2,0-0.4,0.2-0.4h0.9c0.1,0,0.2,0.1,0.2,0.1l2.3,3.3l2.3-3.3
			c0-0.1,0.1-0.1,0.2-0.1h1c0.2,0,0.3,0.2,0.2,0.4l-3,4.3v4.1c0,0.1-0.1,0.2-0.2,0.2h-0.8c-0.1,0-0.2-0.1-0.2-0.2L-123.7,461.8
			L-123.7,461.8z"/>
		<path id="XMLID_146_" class="st0" d="M-111.3,457c1.3,0,2.2,0.4,3.1,1.2c0.1,0.1,0.1,0.3,0,0.4l-0.6,0.6c-0.1,0.1-0.2,0.1-0.3,0
			c-0.6-0.5-1.4-0.9-2.2-0.9c-1.8,0-3.2,1.5-3.2,3.3s1.4,3.3,3.2,3.3c0.9,0,1.6-0.4,2.2-0.8c0.1-0.1,0.2-0.1,0.3,0l0.6,0.6
			c0.1,0.1,0.1,0.3,0,0.3c-0.9,0.8-2,1.2-3.1,1.2c-2.6,0-4.6-2-4.6-4.6C-115.9,459.1-113.9,457-111.3,457z"/>
		<path id="XMLID_148_" class="st0" d="M-101.9,457c2.6,0,4.6,2.1,4.6,4.6c0,2.6-2,4.6-4.6,4.6s-4.6-2-4.6-4.6
			C-106.5,459.1-104.5,457-101.9,457z M-101.9,465c1.8,0,3.3-1.5,3.3-3.3s-1.5-3.3-3.3-3.3s-3.3,1.5-3.3,3.3S-103.7,465-101.9,465z"
			/>
		<path id="XMLID_151_" class="st0" d="M-95,464.5c0.5,0,0.9,0.4,0.9,0.9s-0.4,0.9-0.9,0.9s-0.9-0.4-0.9-0.9S-95.5,464.5-95,464.5z"
			/>
		<path id="XMLID_153_" class="st0" d="M-91.4,464.5c0.5,0,1.1,0.3,1.1,1.4c0,1.3-0.8,2.2-1.3,2.6c-0.1,0.1-0.2,0.1-0.3,0l-0.2-0.2
			c-0.1-0.1-0.1-0.2,0.1-0.3c0.1-0.1,0.9-0.7,0.9-1.7c0,0-0.2,0.1-0.3,0.1c-0.5,0-0.9-0.4-0.9-0.9C-92.4,464.9-92,464.5-91.4,464.5z
			"/>
		<path id="XMLID_155_" class="st0" d="M-85.8,457.4c0-0.1,0.1-0.2,0.2-0.2h0.8c0.1,0,0.2,0.1,0.2,0.2v7.5h3.5
			c0.1,0,0.2,0.1,0.2,0.2v0.7c0,0.1-0.1,0.2-0.2,0.2h-4.5c-0.1,0-0.2-0.1-0.2-0.2V457.4z"/>
		<path id="XMLID_157_" class="st0" d="M-78.2,458.4h-2.1c-0.1,0-0.2-0.1-0.2-0.2v-0.7c0-0.1,0.1-0.2,0.2-0.2h5.5
			c0.1,0,0.2,0.1,0.2,0.2v0.7c0,0.1-0.1,0.2-0.2,0.2h-2.1v7.5c0,0.1-0.1,0.2-0.2,0.2h-0.8c-0.1,0-0.2-0.1-0.2-0.2L-78.2,458.4
			L-78.2,458.4z"/>
		<path id="XMLID_159_" class="st0" d="M-72.6,457.4c0-0.1,0.1-0.2,0.2-0.2h2.9c2.5,0,4.5,2,4.5,4.5s-2,4.5-4.5,4.5h-2.8
			c-0.1,0-0.2-0.1-0.2-0.2L-72.6,457.4L-72.6,457.4z M-69.6,464.9c1.9,0,3.2-1.4,3.2-3.3s-1.4-3.2-3.2-3.2h-1.7v6.5H-69.6z"/>
		<path id="XMLID_162_" class="st0" d="M-62.6,464.5c0.5,0,0.9,0.4,0.9,0.9s-0.4,0.9-0.9,0.9s-0.9-0.4-0.9-0.9
			S-63.1,464.5-62.6,464.5z"/>
	</g>
	<g id="XMLID_370_" class="st1">
		<rect id="XMLID_87_" x="-382.8" y="459.9" class="st0" width="23.5" height="1.7"/>
	</g>
	<g id="XMLID_361_" class="st1">
		<rect id="XMLID_86_" x="-49.4" y="459.9" class="st0" width="23.5" height="1.7"/>
	</g>
	<g id="XMLID_360_">
		<path id="XMLID_2_" class="st0" d="M-380.7,438.9c-0.8,2.2-1.9,3.8-3.2,4.9l-1.6-1.4c1.3-1.1,2.3-2.5,2.9-4.3L-380.7,438.9z
			 M-385.2,429.2h4.9v-2.1h2.2v2.1h5.4v-2.1h2.2v2.1h5.1v2h-5.1v1.8h-2.2v-1.8h-5.4v1.8h-2.2v-1.8h-4.9V429.2z M-367.7,438
			c1.2,1.8,2.2,3.5,2.9,5.1l-1.6,1.2c-0.7-1.6-1.6-3.3-2.8-5.1c0,0.9-0.1,1.9-0.2,3c-0.2,1.9-0.5,3.2-1,4c-0.4,0.7-1.2,1.1-2.1,1.2
			h-3.6l-0.5-2c1.1,0,2.2,0.1,3.1,0.1s1.4-0.5,1.7-1.6s0.5-3.5,0.6-7h-4.1c-0.3,2.7-0.9,5-1.9,6.7c-1.2,1.9-3.2,3.4-5.8,4.5
			l-1.2-1.9c2.6-1.1,4.4-2.4,5.4-4c0.8-1.4,1.2-3.1,1.4-5.2h-5.9v-2.1h6V433h2v1.9h6.2l-0.2,4.3L-367.7,438z"/>
		<path id="XMLID_6_" class="st0" d="M-358.9,432.9c-0.3,2.2-0.8,4.4-1.6,6.6l-1.9-0.7c0.8-2,1.3-4.1,1.7-6.5L-358.9,432.9z
			 M-354.3,432.9c0.9,1.7,1.7,3.6,2.4,5.5l-1.8,0.9c-0.6-1.9-1.3-3.6-2.1-5.2v0.1c0,6.2-1.5,10.7-4.2,13.6l-1.6-1.4
			c2.5-2.5,3.7-6.6,3.8-12.2v-6.9h2v6.3L-354.3,432.9z M-351.5,427.8h2.1v5.5l1.4-0.6c0.9,1.8,1.7,3.6,2.4,5.5l-1.7,0.9
			c-0.6-1.8-1.3-3.5-2-5V447h-2.1L-351.5,427.8L-351.5,427.8L-351.5,427.8z M-345.3,427.1h2v20.7h-2V427.1z"/>
		<path id="XMLID_11_" class="st0" d="M-335.7,437.4l2.1,0.2l-0.4,1h4.6v1.8c-0.4,1.4-1.1,2.5-2.1,3.6c1.1,0.5,2,0.9,2.6,1.3
			l-1.1,1.7c-0.9-0.5-1.9-1-3.1-1.6c-1.5,0.9-3.3,1.7-5.6,2.3l-1-1.8c1.7-0.4,3.1-0.9,4.3-1.5c-0.7-0.3-1.7-0.7-2.9-1.2
			c0.6-0.9,1.1-1.8,1.5-2.6h-2.5v-1.9h3.2L-335.7,437.4z M-339.2,431.1h4.3V427h2v4.1h3.9v1.9h-3.9v0.1c1.1,0.5,2.3,1,3.6,1.7
			l-1.1,1.7c-1.1-0.9-1.9-1.5-2.5-1.9v2.5h-2v-3.8c-0.7,1.6-2,3-3.7,4.3l-1.1-1.7c1.5-0.9,2.7-1.9,3.4-2.9h-2.8L-339.2,431.1
			L-339.2,431.1z M-337.2,427.4c0.5,0.8,0.9,1.7,1.4,2.7l-1.7,0.8c-0.5-1.1-1-2.1-1.5-2.9L-337.2,427.4z M-331.4,440.6h-3.4
			c-0.3,0.6-0.6,1.2-1,1.8c0.9,0.3,1.6,0.6,2.2,0.8C-332.6,442.4-331.9,441.6-331.4,440.6z M-329.2,428.1c-0.5,1-1,1.9-1.7,2.8
			l-1.6-0.8c0.6-0.9,1.1-1.8,1.6-2.8L-329.2,428.1z M-327,436.3c-0.4,0.9-0.8,1.7-1.1,2.3l-1.3-1.7c1.3-2.5,2.1-5.8,2.6-10l2.1,0.4
			c-0.2,1.2-0.3,2.2-0.5,2.9h5.7v2h-1.3c-0.1,3.7-0.8,6.8-2,9.3c1.1,1.8,2.5,3.3,4,4.3l-1.2,1.8c-1.4-1-2.7-2.4-3.8-4.1
			c-1.1,1.7-2.4,3.1-4,4.2l-1.1-1.8c1.7-1.1,3-2.6,4-4.4C-325.7,440-326.4,438.3-327,436.3z M-325.7,432.3l-0.3,1
			c0.5,2.3,1.2,4.3,2,6.1c0.7-2,1.1-4.4,1.2-7.1H-325.7z"/>
		<path id="XMLID_19_" class="st0" d="M-312.6,433.2h12.2v2c-1.5,1.1-3.1,2-4.7,2.9v1.1h8.7v2.1h-8.7v4.2c0,1.4-0.7,2.1-2.2,2.1
			h-2.8l-0.5-1.9c1,0,1.9,0,2.6,0c0.5,0,0.8-0.3,0.8-1v-3.4h-9.2v-2.1h9.2v-2c1.5-0.8,2.7-1.5,3.7-2.1h-9.1V433.2z M-296.8,429.1
			v5.3h-2.2v-3.2h-15v3.2h-2.2v-5.3h8.6c-0.4-0.8-0.7-1.5-1-2l2.5-0.4c0.4,0.8,0.7,1.6,0.9,2.4H-296.8z"/>
		<path id="XMLID_22_" class="st0" d="M-286.3,442.7c-2.3,1-4.7,1.9-7.1,2.5l-0.5-2.2c0.8-0.1,1.8-0.4,2.8-0.7v-7.5h-2.5v-2.1h2.5
			V427h2.1v5.7h2.3v2.1h-2.3v6.8c0.8-0.3,1.7-0.7,2.7-1.1V442.7z M-273.8,430.5c0,5-0.1,8-0.4,9.1c-0.2,1-1.2,1.6-2.9,1.6h-0.2
			l-0.6-2.2c0.6,0,1,0,1.3,0c0.4,0,0.6-0.2,0.7-0.7s0.1-2.2,0.1-5l-2.6,0.7v8.8h-2v-8.3l-2.4,0.7v8.9c0,0.8,0.4,1.1,1.1,1.1h5.5
			c0.4,0,0.7-0.2,0.8-0.5c0.2-0.3,0.3-1.3,0.4-3l2,0.6c-0.2,2.4-0.5,3.8-0.9,4.2s-1.1,0.7-1.9,0.7h-6.6c-1.7,0-2.5-0.9-2.5-2.7v-8.7
			l-1.4,0.5v-2.1l1.4-0.4v-4.5h2.1v3.9l2.4-0.7V427h2v4.9L-273.8,430.5z"/>
		<path id="XMLID_25_" class="st0" d="M-251.1,427.8v19.9h-2.1v-0.8h-14.6v0.8h-2.1v-19.9H-251.1z M-267.8,445.1h14.6v-15.4h-14.6
			V445.1z M-261,430.2c-0.1,0.3-0.3,0.6-0.4,1h5.8v1.4c-0.6,1.1-1.4,2.1-2.6,2.9c1.3,0.6,2.9,1.1,4.7,1.5l-1.1,1.6
			c-2.1-0.6-3.9-1.3-5.4-2c-1.7,0.8-3.8,1.5-6.3,2.1l-0.9-1.7c2.2-0.4,4.1-0.9,5.5-1.5c-0.7-0.5-1.3-1-1.9-1.6
			c-0.6,0.5-1.3,1-2.1,1.6l-1.2-1.6c2-1.1,3.3-2.5,4-4.1L-261,430.2z M-264.4,440.8c3,0.6,5.9,1.3,8.5,2.3l-0.7,1.7
			c-2.8-1-5.6-1.8-8.7-2.4L-264.4,440.8z M-262.1,437.8c1.9,0.6,3.5,1.2,4.9,1.9l-1,1.5c-1.6-0.9-3.2-1.5-4.9-2L-262.1,437.8z
			 M-257.8,432.8h-4.7c-0.1,0.1-0.1,0.1-0.1,0.1c0.8,0.7,1.6,1.3,2.5,1.8C-259.1,434.1-258.4,433.5-257.8,432.8z"/>
		<path id="XMLID_32_" class="st0" d="M-245.6,435.9c-0.7,0.9-1.3,1.6-1.9,2.3l-0.7-2.3c2.1-2.6,3.6-5.7,4.6-9.1l2,0.9
			c-0.5,1.7-1.2,3.3-2,4.8v15.3h-2.1L-245.6,435.9L-245.6,435.9z M-241.9,429.7h6.6c-0.3-0.8-0.6-1.5-1-2.2l2-0.6
			c0.5,1,0.8,1.9,1.1,2.8h6.1v2h-14.8L-241.9,429.7L-241.9,429.7z M-228.5,439.6v8.1h-2.1v-1.2h-7.7v1.2h-2v-8.1H-228.5z
			 M-239.8,433.1h10.8v1.9h-10.8V433.1z M-239.8,436.2h10.8v1.9h-10.8V436.2z M-238.3,444.6h7.6v-3h-7.6V444.6z"/>
		<path id="XMLID_39_" class="st0" d="M-220.8,441.6c-0.5,2.1-1.3,3.9-2.2,5.4l-1.8-1.1c0.9-1.4,1.6-3,2-4.7L-220.8,441.6z
			 M-221.7,428.5h5c0.3-0.5,0.5-1.1,0.6-1.7l2.2,0.3c-0.1,0.4-0.3,0.9-0.6,1.4h7.1v11.4h-14.4L-221.7,428.5L-221.7,428.5z
			 M-217.4,447.4c-1.5,0-2.2-0.7-2.2-2.1v-4.1h2.2v3.7c0,0.5,0.2,0.7,0.7,0.7h4.7c0.4,0,0.7-0.1,0.9-0.3c0.3-0.3,0.4-1.1,0.5-2.4
			l2,0.7c-0.2,1.9-0.5,3-1,3.5c-0.5,0.3-1.1,0.5-2,0.5h-5.8L-217.4,447.4L-217.4,447.4z M-219.6,431.8h10.3v-1.5h-10.3V431.8z
			 M-219.6,434.9h10.3v-1.4h-10.3V434.9z M-209.3,438v-1.5h-10.3v1.5H-209.3z M-214.4,440.2c1.2,1.2,2,2.2,2.5,2.9l-1.6,1.1
			c-0.6-1-1.5-2-2.5-3.1L-214.4,440.2z M-207.2,440.7c1.3,1.6,2.3,3.2,3.1,4.6l-1.7,1.2c-0.8-1.4-1.8-3-3.1-4.8L-207.2,440.7z"/>
		<path id="XMLID_48_" class="st0" d="M-201.5,432.9h3.5v-2.8c-1.3,0.2-2.3,0.3-3.1,0.4l-0.4-2c2.9-0.2,5.5-0.7,7.8-1.4l0.7,2
			c-1,0.3-1.9,0.5-2.9,0.7v3.1h2.9v2h-2.9v0.9c1.2,0.9,2.4,1.9,3.6,3.1l-1.2,1.8c-1.1-1.3-1.9-2.3-2.5-2.9v9.8h-2.2v-9.7
			c-0.9,2-1.9,3.8-3.3,5.4l-0.9-2.4c1.8-1.8,3.1-3.8,4-6.1h-3.3v-1.9H-201.5L-201.5,432.9z M-181.4,439l0.3,2.1l-2.1,0.3v6.3h-2.2
			v-5.9l-6.8,1.1l-0.3-2.1l7.1-1.1v-12.6h2.2v12.2L-181.4,439z M-190.6,433.4c1.6,1.1,2.9,2.2,4,3.4l-1.5,1.5c-1-1.1-2.3-2.2-4-3.5
			L-190.6,433.4z M-190,428.2c1.5,1.1,2.8,2.2,3.9,3.3l-1.5,1.5c-0.9-1-2.2-2.1-3.9-3.3L-190,428.2z"/>
		<path id="XMLID_53_" class="st0" d="M-178.2,447.5l-0.4-2c0.6,0.1,1.1,0.1,1.6,0.1s0.8-0.3,0.8-0.9v-4.8c-1,0.4-1.8,0.7-2.5,0.9
			l-0.5-2.1c1-0.2,2-0.5,3-0.9v-4.9h-2.5v-2h2.5V427h2.1v3.9h2.2v2h-2.2v4c0.7-0.3,1.5-0.7,2.2-1.1v2.1c-0.6,0.3-1.3,0.7-2.2,1.1
			v6.2c0,1.5-0.7,2.2-2.2,2.2L-178.2,447.5L-178.2,447.5L-178.2,447.5z M-171.2,430h5.3v-3h2.1v3h5.3v2h-5.3v3.3h4.4v1.9
			c-0.7,2.4-1.9,4.4-3.6,6.1c1.4,1.1,3.1,2,5.1,2.7l-1.1,1.8c-2.1-0.9-3.9-2-5.5-3.2c-1.7,1.3-3.8,2.4-6.2,3.3l-1-1.8
			c2.3-0.7,4.2-1.7,5.7-2.8c-1.8-1.8-2.9-3.7-3.5-5.9h-1.2v-2h4.8v-3.2h-5.3V430L-171.2,430z M-167.6,437.3c0.5,1.8,1.5,3.3,3,4.7
			c1.4-1.4,2.4-2.9,3-4.7H-167.6z"/>
		<path id="XMLID_57_" class="st0" d="M-152.7,440.4c-0.2,3-0.8,5.5-1.8,7.4l-1.6-1.4c1-2,1.5-4.5,1.5-7.6v-11.2h7v17.9
			c0,1.4-0.7,2.1-2.2,2.1h-1.7l-0.5-1.9c0.6,0.1,1.2,0.1,1.6,0.1c0.6,0,0.8-0.4,0.8-1.1v-4.5h-3.1V440.4z M-149.5,433.1v-3.5h-3.1
			v3.5H-149.5z M-152.6,435.1v3.3h3.1v-3.3H-152.6z M-146.4,436.4h9.7v2c-0.5,2-1.5,3.8-2.8,5.2c1.2,0.9,2.7,1.7,4.3,2.3l-1.1,1.8
			c-1.8-0.8-3.4-1.8-4.6-2.8c-1.4,1.1-3.1,2.1-5.1,2.8l-1.2-1.8c1.8-0.6,3.4-1.5,4.7-2.5c-1.4-1.5-2.4-3.2-2.9-5.1h-1L-146.4,436.4
			L-146.4,436.4z M-145.2,427.7h7.4v4.6c0,0.5,0.2,0.7,0.7,0.7h1.6v2h-2.2c-1.5,0-2.2-0.7-2.2-2.2v-3.1h-3.2v1.1
			c0,2.2-0.8,3.9-2.5,5.2l-1.4-1.6c1.2-0.8,1.8-1.9,1.8-3.4L-145.2,427.7L-145.2,427.7z M-143.4,438.4c0.4,1.4,1.2,2.6,2.3,3.8
			c1-1.1,1.8-2.4,2.3-3.8H-143.4z"/>
		<path id="XMLID_64_" class="st0" d="M-126.1,427.7c-0.5,1.7-1.3,3.3-2.2,4.9v15.1h-2.2v-11.9c-0.7,0.9-1.4,1.7-2.1,2.4l-0.7-2.2
			c2.3-2.6,4.1-5.7,5.2-9.2L-126.1,427.7z M-125.3,437.6v-1.9c-0.3,0.4-0.6,0.7-0.9,1l-1.6-1.4c2.1-2,3.7-4.7,4.7-8.1l2,0.8
			c-1.1,3.1-2.4,5.7-4,7.6h10.1c0,5-0.1,8.2-0.3,9.4c-0.2,1.6-1.2,2.5-3,2.5l-2.4-0.1l-0.5-2c1.1,0.1,1.9,0.1,2.6,0.1
			s1.2-0.5,1.3-1.5c0.1-0.6,0.2-2.7,0.3-6.3h-3.4c-0.4,2.3-0.9,4.2-1.6,5.7c-0.8,1.6-2,3-3.6,4.3l-1.4-1.8c1.4-1.1,2.4-2.2,3.1-3.6
			c0.6-1.2,1.1-2.8,1.4-4.7H-125.3z M-117.4,426.9c1,3.2,2.7,5.8,5.2,7.8l-1.4,1.7c-2.7-2.2-4.6-5-5.6-8.5L-117.4,426.9z"/>
		<path id="XMLID_68_" class="st0" d="M-94.4,443h-8.4v4.7h-2v-11.2c-1.2,1.4-2.5,2.7-3.9,3.8l-1.4-1.8c2.6-2.1,4.7-4.5,6.2-7.1
			h-5.6v-2.1h6.6c0.3-0.7,0.6-1.5,0.9-2.5l2.2,0.2c-0.2,0.8-0.5,1.5-0.7,2.2h10.9v2.1h-11.8c-0.3,0.7-0.7,1.4-1.2,2.2h10.3v12.2
			c0,1.2-0.7,1.9-2.2,1.9H-97l-0.5-1.9c0.9,0.1,1.7,0.1,2.4,0.1c0.6,0,0.8-0.2,0.8-0.7L-94.4,443L-94.4,443z M-102.8,435.4v2h8.4v-2
			H-102.8z M-94.4,439.2h-8.4v1.9h8.4V439.2z"/>
		<path id="XMLID_72_" class="st0" d="M-86.3,427.7h7.3v1.7c-0.7,1.9-1.4,3.9-2.4,6.1c1.4,2.1,2.2,3.9,2.3,5.4c0,1-0.2,1.8-0.7,2.2
			c-0.7,0.6-1.8,0.9-3.5,0.9l-0.7-2.2c0.5,0.1,0.9,0.1,1.1,0.1c0.6,0,1-0.1,1.3-0.3c0.2-0.2,0.3-0.4,0.3-0.8c0-1.5-0.8-3.2-2.3-5.1
			c1-2.1,1.8-4.2,2.4-6.1h-3.1v18h-2L-86.3,427.7L-86.3,427.7z M-76.1,437.8v7c1.2-0.4,2.4-0.8,3.6-1.3l0.5,2
			c-1.7,0.7-3.8,1.4-6.2,2l-0.5-1.9c0.4-0.1,0.6-0.3,0.6-0.6v-17.3H-68v10.1h-4c0.2,1.1,0.6,2.2,1.2,3.2c1-0.6,1.9-1.4,2.8-2.5
			l1.4,1.4c-0.9,1.1-2,2-3.2,2.6c0.9,1.2,2.2,2.3,3.8,3.2l-1.2,1.9c-3.7-2.4-5.9-5.7-6.6-9.8C-73.8,437.8-76.1,437.8-76.1,437.8z
			 M-70.1,431.8v-2.1h-6v2.1H-70.1z M-76.1,433.8v2h6v-2H-76.1z"/>
		<path id="XMLID_77_" class="st0" d="M-56,428c-1.6,4.7-3.7,8.3-6.3,10.8l-1.7-1.5c2.7-2.5,4.7-5.9,6.1-10.1L-56,428z M-49.5,439.1
			c1.6,2.4,2.9,5,4.1,7.7l-2,0.9c-0.3-0.8-0.6-1.6-0.9-2.2c-4,0.6-8.4,1.1-13,1.4l-0.4-2.1c1.6-0.5,3.8-3.9,6.7-10.2l2.1,0.7
			c-1.8,3.7-3.6,6.8-5.5,9.4c3.3-0.2,6.3-0.6,9.2-1c-0.7-1.5-1.5-2.8-2.2-4L-49.5,439.1z M-49.9,427c1.3,4.1,3.4,7.5,6.5,10
			l-1.5,1.8c-3.3-2.8-5.5-6.4-6.8-10.8L-49.9,427z"/>
		<path id="XMLID_81_" class="st0" d="M-40.7,432.2h14.2v2h-14.2V432.2z M-27.9,447.6l-0.5-2h3.2c0.5,0,0.8-0.4,0.8-1.2v-14.6h-15.1
			v-2.1h17.2v17.2c0,1.8-0.8,2.6-2.5,2.6L-27.9,447.6L-27.9,447.6z M-38.8,436.4h10.3v7.3h-10.3V436.4z M-30.6,441.9v-3.6h-6.2v3.5
			L-30.6,441.9L-30.6,441.9z"/>
	</g>
</g>
<g id="croix">
	<g id="Calque_2_1_">
		<g id="Calque_2_4_">
			<path class="st0" d="M-312.4,338.6h-5.8v-5.8c0-1.9-1.3-3.2-3.2-3.2s-3.2,1.5-3.2,3.2v5.8h-6c-1.9,0-3.2,1.5-3.2,3.2
				c0,1.9,1.5,3.2,3.2,3.2h6v6c0,1.9,1.5,3.2,3.2,3.2s3.2-1.3,3.2-3.2v-6h6c1.7,0,3.2-1.3,3-3.2C-309.2,340-310.7,338.6-312.4,338.6
				z"/>
		</g>
	</g>
</g>
<g id="trangle1">
	<g id="XMLID_738_">
		<polygon id="XMLID_171_" class="st0" points="-228.1,342 -216.1,368.4 -203.8,395 -228.1,395 -252.5,395 -240.4,368.4 		"/>
	</g>
</g>
<g id="trangle2">
	<g id="XMLID_1_">
		<polygon id="XMLID_5_" class="st0" points="-90.3,342 -78.1,368.4 -66,395 -90.3,395 -114.6,395 -102.4,368.4 		"/>
	</g>
</g>
</svg>
