<?xml version="1.0" encoding="utf-8"?>
<!-- Generator: Adobe Illustrator 19.0.0, SVG Export Plug-In . SVG Version: 6.00 Build 0)  -->
<!DOCTYPE svg PUBLIC "-//W3C//DTD SVG 1.1//EN" "http://www.w3.org/Graphics/SVG/1.1/DTD/svg11.dtd">
<svg version="1.1" xmlns="http://www.w3.org/2000/svg" xmlns:xlink="http://www.w3.org/1999/xlink" x="0px" y="0px"
	 viewBox="-420 332 438 138" style="enable-background:new -420 332 438 138;" xml:space="preserve">
<style type="text/css">
	.st0{fill:#FFFFFF;}
	.st1{fill:#CCCCCC;}
	
		 svg * {
          -webkit-transition: all 0.3s;
      }
	
	@media all and (min-width: 151px){
       #croix {
            -webkit-animation: round 3s infinite;
            transform-origin: center;
        }
        
         #trangle1 {
            -webkit-animation: shine 3s infinite;
        }
        
        #trangle2 {
            -webkit-animation: shine 5s infinite;
        }
        
        
        
         @-webkit-keyframes shine {
				0%, 50%, 100% {
			    opacity: 1;
			  }
			
			  25%, 75% {
			    opacity: 0.2;
			  }

	  }

        
        @-webkit-keyframes round {
            0%   { transform: rotate(0deg); }
            50%  { transform: rotate(180deg); }
            100% { transform: rotate(360deg); }
        }

	
	
	
	
</style>
<g id="Calque_1">
	<g id="XMLID_1283_">
		<path id="XMLID_170_" class="st0" d="M-238.6,384.7h-25.8c-0.9,0-1.7-0.7-1.7-1.7v-16.1c0-0.9,0.7-1.7,1.7-1.7s1.7,0.7,1.7,1.7
			v14.4h22.4v-10.7h-11.2c-0.9,0-1.7-0.7-1.7-1.7s0.7-1.7,1.7-1.7h12.9c0.9,0,1.7,0.7,1.7,1.7V383
			C-236.9,383.9-237.7,384.7-238.6,384.7z"/>
	</g>
	<g id="XMLID_741_">
		<path id="XMLID_169_" class="st0" d="M-238.6,356.5h-13.7c-0.9,0-1.7-0.7-1.7-1.7c0-0.9,0.7-1.7,1.7-1.7h13.7
			c0.9,0,1.7,0.7,1.7,1.7S-237.7,356.5-238.6,356.5z"/>
	</g>
	<g id="XMLID_736_">
		<path id="XMLID_166_" class="st0" d="M-165.5,356.5h-25.8c-0.9,0-1.7-0.7-1.7-1.7c0-0.9,0.7-1.7,1.7-1.7h25.8
			c0.9,0,1.7,0.7,1.7,1.7S-164.5,356.5-165.5,356.5z"/>
	</g>
	<g id="XMLID_735_">
		<path id="XMLID_165_" class="st0" d="M-165.5,370.6h-25.8c-0.9,0-1.7-0.7-1.7-1.7s0.7-1.7,1.7-1.7h25.8c0.9,0,1.7,0.7,1.7,1.7
			S-164.5,370.6-165.5,370.6z"/>
	</g>
	<g id="XMLID_734_">
		<path id="XMLID_164_" class="st0" d="M-165.5,384.7h-25.8c-0.9,0-1.7-0.7-1.7-1.7s0.7-1.7,1.7-1.7h25.8c0.9,0,1.7,0.7,1.7,1.7
			S-164.5,384.7-165.5,384.7z"/>
	</g>
	<g id="XMLID_727_">
		<path id="XMLID_88_" class="st1" d="M-340.8,437.6c1.2,0,2.2,0.4,3.1,1.2c0.1,0.1,0.1,0.3,0,0.4c-0.2,0.2-0.4,0.4-0.6,0.6
			c-0.1,0.1-0.2,0.1-0.3,0c-0.6-0.5-1.4-0.9-2.2-0.9c-1.8,0-3.2,1.5-3.2,3.3s1.4,3.3,3.2,3.3c1.1,0,1.8-0.4,1.9-0.4v-1.4h-1.3
			c-0.1,0-0.2-0.1-0.2-0.2v-0.7c0-0.1,0.1-0.2,0.2-0.2h2.3c0.1,0,0.2,0.1,0.2,0.2c0,1,0,2.1,0,3.1c0,0.1-0.1,0.2-0.1,0.2
			s-1.3,0.8-3.2,0.8c-2.5,0-4.6-2-4.6-4.6C-345.4,439.7-343.3,437.6-340.8,437.6z"/>
		<path id="XMLID_90_" class="st1" d="M-336.2,446.4l3.9-8.6c0-0.1,0.2-0.1,0.2-0.1h0.1c0.1,0,0.2,0.1,0.2,0.1l3.9,8.6
			c0.1,0.2,0,0.3-0.2,0.3h-0.8c-0.2,0-0.2-0.1-0.3-0.2l-0.8-1.7h-4.2c-0.3,0.6-0.5,1.2-0.8,1.7c0,0.1-0.1,0.2-0.3,0.2h-0.8
			C-336.1,446.7-336.2,446.5-336.2,446.4z M-330.4,443.7l-1.6-3.5h-0.1l-1.6,3.5H-330.4z"/>
		<path id="XMLID_93_" class="st1" d="M-325.9,438c0-0.1,0.1-0.2,0.2-0.2h5.1c0.1,0,0.2,0.1,0.2,0.2v0.7c0,0.1-0.1,0.2-0.2,0.2h-4
			v2.6h3.4c0.1,0,0.2,0.1,0.2,0.2v0.7c0,0.1-0.1,0.2-0.2,0.2h-3.4v2.7h4c0.1,0,0.2,0.1,0.2,0.2v0.7c0,0.1-0.1,0.2-0.2,0.2h-5.1
			c-0.1,0-0.2-0.1-0.2-0.2V438z"/>
		<path id="XMLID_95_" class="st1" d="M-319.1,446.4l3.9-8.6c0-0.1,0.2-0.1,0.2-0.1h0.1c0.1,0,0.2,0.1,0.2,0.1l3.9,8.6
			c0.1,0.2,0,0.3-0.2,0.3h-0.8c-0.2,0-0.2-0.1-0.3-0.2l-0.8-1.7h-4.2c-0.3,0.6-0.5,1.2-0.8,1.7c0,0.1-0.1,0.2-0.3,0.2h-0.8
			C-319,446.7-319.1,446.5-319.1,446.4z M-313.3,443.7l-1.6-3.5h-0.1l-1.6,3.5H-313.3z"/>
		<path id="XMLID_98_" class="st1" d="M-306.6,438c0-0.1,0.1-0.2,0.2-0.2h0.8c0.1,0,0.2,0.1,0.2,0.2v8.5c0,0.1-0.1,0.2-0.2,0.2h-0.8
			c-0.1,0-0.2-0.1-0.2-0.2V438z"/>
		<path id="XMLID_100_" class="st1" d="M-302.2,437.9c0-0.1,0.1-0.2,0.2-0.2h0.3l5.5,6.4l0,0v-6c0-0.1,0.1-0.2,0.2-0.2h0.8
			c0.1,0,0.2,0.1,0.2,0.2v8.6c0,0.1-0.1,0.2-0.2,0.2h-0.3l-5.5-6.6l0,0v6.2c0,0.1-0.1,0.2-0.2,0.2h-0.8c-0.1,0-0.2-0.1-0.2-0.2
			V437.9z"/>
		<path id="XMLID_102_" class="st1" d="M-291.8,438c0-0.1,0.1-0.2,0.2-0.2h5.1c0.1,0,0.2,0.1,0.2,0.2v0.7c0,0.1-0.1,0.2-0.2,0.2h-4
			v3h3.4c0.1,0,0.2,0.1,0.2,0.2v0.7c0,0.1-0.1,0.2-0.2,0.2h-3.4v3.4c0,0.1-0.1,0.2-0.2,0.2h-0.8c-0.1,0-0.2-0.1-0.2-0.2L-291.8,438
			L-291.8,438L-291.8,438z"/>
		<path id="XMLID_104_" class="st1" d="M-280,437.6c2.6,0,4.6,2.1,4.6,4.6c0,2.6-2,4.6-4.6,4.6s-4.6-2-4.6-4.6
			C-284.6,439.7-282.6,437.6-280,437.6z M-280,445.6c1.8,0,3.3-1.5,3.3-3.3s-1.5-3.3-3.3-3.3s-3.3,1.5-3.3,3.3
			C-283.4,444.1-281.9,445.6-280,445.6z"/>
		<path id="XMLID_107_" class="st1" d="M-273.1,438c0-0.1,0.1-0.2,0.2-0.2h3.5c1.5,0,2.8,1.2,2.8,2.7c0,1.2-0.8,2.1-1.9,2.6l1.8,3.2
			c0.1,0.2,0,0.4-0.2,0.4h-1c-0.1,0-0.2-0.1-0.2-0.1l-1.7-3.4h-1.9v3.3c0,0.1-0.1,0.2-0.2,0.2h-0.8c-0.1,0-0.2-0.1-0.2-0.2V438
			H-273.1z M-269.4,442.1c0.8,0,1.6-0.7,1.6-1.6c0-0.8-0.7-1.5-1.6-1.5h-2.3v3.1H-269.4z"/>
		<path id="XMLID_110_" class="st1" d="M-263,437.8c0-0.1,0.1-0.2,0.2-0.2h0.2c0.1,0,0.2,0.1,0.2,0.1l2.7,6.5h0.1l2.7-6.5
			c0-0.1,0.1-0.1,0.2-0.1h0.2c0.1,0,0.2,0.1,0.2,0.2l1.6,8.6c0,0.2-0.1,0.3-0.2,0.3h-0.8c-0.1,0-0.2-0.1-0.2-0.2l-0.9-5.7l0,0
			l-2.3,5.9c0,0.1-0.1,0.1-0.2,0.1h-0.2c-0.1,0-0.2-0.1-0.2-0.1l-2.3-5.9c0,0,0,0-0.1,0l-0.9,5.7c0,0.1-0.1,0.2-0.2,0.2h-0.8
			c-0.2,0-0.3-0.1-0.2-0.3L-263,437.8z"/>
		<path id="XMLID_112_" class="st1" d="M-253.6,446.4l3.9-8.6c0-0.1,0.2-0.1,0.2-0.1h0.1c0.1,0,0.2,0.1,0.2,0.1l3.9,8.6
			c0.1,0.2,0,0.3-0.2,0.3h-0.8c-0.2,0-0.2-0.1-0.3-0.2l-0.8-1.7h-4.2c-0.3,0.6-0.5,1.2-0.8,1.7c0,0.1-0.1,0.2-0.3,0.2h-0.6
			C-253.5,446.7-253.6,446.5-253.6,446.4z M-247.8,443.7l-1.6-3.5h-0.1l-1.6,3.5H-247.8z"/>
		<path id="XMLID_115_" class="st1" d="M-242.6,439h-2.1c-0.1,0-0.2-0.1-0.2-0.2v-0.7c0-0.1,0.1-0.2,0.2-0.2h5.5
			c0.1,0,0.2,0.1,0.2,0.2v0.7c0,0.1-0.1,0.2-0.2,0.2h-2.1v7.5c0,0.1-0.1,0.2-0.2,0.2h-0.8c-0.1,0-0.2-0.1-0.2-0.2L-242.6,439
			L-242.6,439z"/>
		<path id="XMLID_117_" class="st1" d="M-237,438c0-0.1,0.1-0.2,0.2-0.2h0.8c0.1,0,0.2,0.1,0.2,0.2v8.5c0,0.1-0.1,0.2-0.2,0.2h-0.8
			c-0.1,0-0.2-0.1-0.2-0.2V438z"/>
		<path id="XMLID_119_" class="st1" d="M-228.7,437.6c2.6,0,4.6,2.1,4.6,4.6c0,2.6-2,4.6-4.6,4.6s-4.6-2-4.6-4.6
			C-233.3,439.7-231.2,437.6-228.7,437.6z M-228.7,445.6c1.8,0,3.3-1.5,3.3-3.3s-1.5-3.3-3.3-3.3s-3.3,1.5-3.3,3.3
			S-230.5,445.6-228.7,445.6z"/>
		<path id="XMLID_122_" class="st1" d="M-221.7,437.9c0-0.1,0.1-0.2,0.2-0.2h0.3l5.5,6.4l0,0v-6c0-0.1,0.1-0.2,0.2-0.2h0.8
			c0.1,0,0.2,0.1,0.2,0.2v8.6c0,0.1-0.1,0.2-0.2,0.2h-0.3l-5.5-6.6l0,0v6.2c0,0.1-0.1,0.2-0.2,0.2h-0.8c-0.1,0-0.2-0.1-0.2-0.2
			V437.9z"/>
		<path id="XMLID_124_" class="st1" d="M-207.8,439h-2.1c-0.1,0-0.2-0.1-0.2-0.2v-0.7c0-0.1,0.1-0.2,0.2-0.2h5.5
			c0.1,0,0.2,0.1,0.2,0.2v0.7c0,0.1-0.1,0.2-0.2,0.2h-2.1v7.5c0,0.1-0.1,0.2-0.2,0.2h-0.8c-0.1,0-0.2-0.1-0.2-0.2L-207.8,439
			L-207.8,439z"/>
		<path id="XMLID_126_" class="st1" d="M-202.2,438c0-0.1,0.1-0.2,0.2-0.2h5.1c0.1,0,0.2,0.1,0.2,0.2v0.7c0,0.1-0.1,0.2-0.2,0.2h-4
			v2.6h3.4c0.1,0,0.2,0.1,0.2,0.2v0.7c0,0.1-0.1,0.2-0.2,0.2h-3.4v2.7h4c0.1,0,0.2,0.1,0.2,0.2v0.7c0,0.1-0.1,0.2-0.2,0.2h-5.1
			c-0.1,0-0.2-0.1-0.2-0.2V438z"/>
		<path id="XMLID_128_" class="st1" d="M-190.2,437.6c1.3,0,2.2,0.4,3.1,1.2c0.1,0.1,0.1,0.3,0,0.4l-0.6,0.6c-0.1,0.1-0.2,0.1-0.3,0
			c-0.6-0.5-1.4-0.9-2.2-0.9c-1.8,0-3.2,1.5-3.2,3.3s1.4,3.3,3.2,3.3c0.9,0,1.6-0.4,2.2-0.8c0.1-0.1,0.2-0.1,0.3,0l0.6,0.6
			c0.1,0.1,0.1,0.3,0,0.3c-0.9,0.8-2,1.2-3.1,1.2c-2.6,0-4.6-2-4.6-4.6C-194.8,439.7-192.7,437.6-190.2,437.6z"/>
		<path id="XMLID_130_" class="st1" d="M-184.7,438c0-0.1,0.1-0.2,0.2-0.2h0.8c0.1,0,0.2,0.1,0.2,0.2v3.6h4.7V438
			c0-0.1,0.1-0.2,0.2-0.2h0.8c0.1,0,0.2,0.1,0.2,0.2v8.5c0,0.1-0.1,0.2-0.2,0.2h-0.8c-0.1,0-0.2-0.1-0.2-0.2v-3.7h-4.7v3.7
			c0,0.1-0.1,0.2-0.2,0.2h-0.8c-0.1,0-0.2-0.1-0.2-0.2V438z"/>
		<path id="XMLID_132_" class="st1" d="M-174.3,437.9c0-0.1,0.1-0.2,0.2-0.2h0.3l5.5,6.4l0,0v-6c0-0.1,0.1-0.2,0.2-0.2h0.8
			c0.1,0,0.2,0.1,0.2,0.2v8.6c0,0.1-0.1,0.2-0.2,0.2h-0.3l-5.5-6.6l0,0v6.2c0,0.1-0.1,0.2-0.2,0.2h-0.8c-0.1,0-0.2-0.1-0.2-0.2
			V437.9z"/>
		<path id="XMLID_134_" class="st1" d="M-159.9,437.6c2.6,0,4.6,2.1,4.6,4.6c0,2.6-2,4.6-4.6,4.6s-4.6-2-4.6-4.6
			C-164.5,439.7-162.5,437.6-159.9,437.6z M-159.9,445.6c1.8,0,3.3-1.5,3.3-3.3s-1.5-3.3-3.3-3.3s-3.3,1.5-3.3,3.3
			S-161.7,445.6-159.9,445.6z"/>
		<path id="XMLID_137_" class="st1" d="M-152.9,438c0-0.1,0.1-0.2,0.2-0.2h0.8c0.1,0,0.2,0.1,0.2,0.2v7.5h3.5c0.1,0,0.2,0.1,0.2,0.2
			v0.7c0,0.1-0.1,0.2-0.2,0.2h-4.5c-0.1,0-0.2-0.1-0.2-0.2V438z"/>
		<path id="XMLID_139_" class="st1" d="M-142.2,437.6c2.6,0,4.6,2.1,4.6,4.6c0,2.6-2,4.6-4.6,4.6s-4.6-2-4.6-4.6
			C-146.8,439.7-144.7,437.6-142.2,437.6z M-142.2,445.6c1.8,0,3.3-1.5,3.3-3.3s-1.5-3.3-3.3-3.3s-3.3,1.5-3.3,3.3
			S-144,445.6-142.2,445.6z"/>
		<path id="XMLID_142_" class="st1" d="M-131.2,437.6c1.2,0,2.2,0.4,3.1,1.2c0.1,0.1,0.1,0.3,0,0.4c-0.2,0.2-0.4,0.4-0.6,0.6
			c-0.1,0.1-0.2,0.1-0.3,0c-0.6-0.5-1.4-0.9-2.2-0.9c-1.8,0-3.2,1.5-3.2,3.3s1.4,3.3,3.2,3.3c1.1,0,1.8-0.4,1.9-0.4v-1.4h-1.3
			c-0.1,0-0.2-0.1-0.2-0.2v-0.7c0-0.1,0.1-0.2,0.2-0.2h2.3c0.1,0,0.2,0.1,0.2,0.2c0,1,0,2.1,0,3.1c0,0.1-0.1,0.2-0.1,0.2
			s-1.3,0.8-3.2,0.8c-2.5,0-4.6-2-4.6-4.6C-135.8,439.7-133.8,437.6-131.2,437.6z"/>
		<path id="XMLID_144_" class="st1" d="M-123.7,442.4l-3-4.3c-0.1-0.2,0-0.4,0.2-0.4h0.9c0.1,0,0.2,0.1,0.2,0.1l2.3,3.3l2.3-3.3
			c0-0.1,0.1-0.1,0.2-0.1h1c0.2,0,0.3,0.2,0.2,0.4l-3,4.3v4.1c0,0.1-0.1,0.2-0.2,0.2h-0.8c-0.1,0-0.2-0.1-0.2-0.2L-123.7,442.4
			L-123.7,442.4z"/>
		<path id="XMLID_146_" class="st1" d="M-111.3,437.6c1.3,0,2.2,0.4,3.1,1.2c0.1,0.1,0.1,0.3,0,0.4l-0.6,0.6c-0.1,0.1-0.2,0.1-0.3,0
			c-0.6-0.5-1.4-0.9-2.2-0.9c-1.8,0-3.2,1.5-3.2,3.3s1.4,3.3,3.2,3.3c0.9,0,1.6-0.4,2.2-0.8c0.1-0.1,0.2-0.1,0.3,0l0.6,0.6
			c0.1,0.1,0.1,0.3,0,0.3c-0.9,0.8-2,1.2-3.1,1.2c-2.6,0-4.6-2-4.6-4.6C-115.9,439.7-113.9,437.6-111.3,437.6z"/>
		<path id="XMLID_148_" class="st1" d="M-101.9,437.6c2.6,0,4.6,2.1,4.6,4.6c0,2.6-2,4.6-4.6,4.6s-4.6-2-4.6-4.6
			C-106.5,439.7-104.5,437.6-101.9,437.6z M-101.9,445.6c1.8,0,3.3-1.5,3.3-3.3s-1.5-3.3-3.3-3.3s-3.3,1.5-3.3,3.3
			S-103.7,445.6-101.9,445.6z"/>
		<path id="XMLID_151_" class="st1" d="M-95,445.1c0.5,0,0.9,0.4,0.9,0.9s-0.4,0.9-0.9,0.9s-0.9-0.4-0.9-0.9S-95.5,445.1-95,445.1z"
			/>
		<path id="XMLID_153_" class="st1" d="M-91.4,445.1c0.5,0,1.1,0.3,1.1,1.4c0,1.3-0.8,2.2-1.3,2.6c-0.1,0.1-0.2,0.1-0.3,0l-0.2-0.2
			c-0.1-0.1-0.1-0.2,0.1-0.3c0.1-0.1,0.9-0.7,0.9-1.7c0,0-0.2,0.1-0.3,0.1c-0.5,0-0.9-0.4-0.9-0.9C-92.4,445.5-92,445.1-91.4,445.1z
			"/>
		<path id="XMLID_155_" class="st1" d="M-85.8,438c0-0.1,0.1-0.2,0.2-0.2h0.8c0.1,0,0.2,0.1,0.2,0.2v7.5h3.5c0.1,0,0.2,0.1,0.2,0.2
			v0.7c0,0.1-0.1,0.2-0.2,0.2h-4.5c-0.1,0-0.2-0.1-0.2-0.2V438z"/>
		<path id="XMLID_157_" class="st1" d="M-78.2,439h-2.1c-0.1,0-0.2-0.1-0.2-0.2v-0.7c0-0.1,0.1-0.2,0.2-0.2h5.5
			c0.1,0,0.2,0.1,0.2,0.2v0.7c0,0.1-0.1,0.2-0.2,0.2h-2.1v7.5c0,0.1-0.1,0.2-0.2,0.2h-0.8c-0.1,0-0.2-0.1-0.2-0.2L-78.2,439
			L-78.2,439z"/>
		<path id="XMLID_159_" class="st1" d="M-72.6,438c0-0.1,0.1-0.2,0.2-0.2h2.9c2.5,0,4.5,2,4.5,4.5s-2,4.5-4.5,4.5h-2.8
			c-0.1,0-0.2-0.1-0.2-0.2L-72.6,438L-72.6,438z M-69.6,445.5c1.9,0,3.2-1.4,3.2-3.3s-1.4-3.2-3.2-3.2h-1.7v6.5H-69.6z"/>
		<path id="XMLID_162_" class="st1" d="M-62.6,445.1c0.5,0,0.9,0.4,0.9,0.9s-0.4,0.9-0.9,0.9s-0.9-0.4-0.9-0.9
			S-63.1,445.1-62.6,445.1z"/>
	</g>
	<g id="XMLID_370_">
		<rect id="XMLID_87_" x="-382.8" y="440.5" class="st1" width="23.5" height="1.7"/>
	</g>
	<g id="XMLID_361_">
		<rect id="XMLID_86_" x="-49.4" y="440.5" class="st1" width="23.5" height="1.7"/>
	</g>
	<g id="XMLID_360_">
		<path id="XMLID_2_" class="st0" d="M-380.7,416.5c-0.8,2.2-1.9,3.8-3.2,4.9l-1.6-1.4c1.3-1.1,2.3-2.5,2.9-4.3L-380.7,416.5z
			 M-385.2,406.8h4.9v-2.1h2.2v2.1h5.4v-2.1h2.2v2.1h5.1v2h-5.1v1.8h-2.2v-1.8h-5.4v1.8h-2.2v-1.8h-4.9V406.8z M-367.7,415.6
			c1.2,1.8,2.2,3.5,2.9,5.1l-1.6,1.2c-0.7-1.6-1.6-3.3-2.8-5.1c0,0.9-0.1,1.9-0.2,3c-0.2,1.9-0.5,3.2-1,4c-0.4,0.7-1.2,1.1-2.1,1.2
			h-3.6l-0.5-2c1.1,0,2.2,0.1,3.1,0.1s1.4-0.5,1.7-1.6s0.5-3.5,0.6-7h-4.1c-0.3,2.7-0.9,5-1.9,6.7c-1.2,1.9-3.2,3.4-5.8,4.5
			l-1.2-1.9c2.6-1.1,4.4-2.4,5.4-4c0.8-1.4,1.2-3.1,1.4-5.2h-5.9v-2.1h6v-1.9h2v1.9h6.2l-0.2,4.3L-367.7,415.6z"/>
		<path id="XMLID_6_" class="st0" d="M-358.9,410.5c-0.3,2.2-0.8,4.4-1.6,6.6l-1.9-0.7c0.8-2,1.3-4.1,1.7-6.5L-358.9,410.5z
			 M-354.3,410.5c0.9,1.7,1.7,3.6,2.4,5.5l-1.8,0.9c-0.6-1.9-1.3-3.6-2.1-5.2v0.1c0,6.2-1.5,10.7-4.2,13.6l-1.6-1.4
			c2.5-2.5,3.7-6.6,3.8-12.2v-6.9h2v6.3L-354.3,410.5z M-351.5,405.4h2.1v5.5l1.4-0.6c0.9,1.8,1.7,3.6,2.4,5.5l-1.7,0.9
			c-0.6-1.8-1.3-3.5-2-5v12.9h-2.1L-351.5,405.4L-351.5,405.4L-351.5,405.4z M-345.3,404.7h2v20.7h-2V404.7z"/>
		<path id="XMLID_11_" class="st0" d="M-335.7,415l2.1,0.2l-0.4,1h4.6v1.8c-0.4,1.4-1.1,2.5-2.1,3.6c1.1,0.5,2,0.9,2.6,1.3l-1.1,1.7
			c-0.9-0.5-1.9-1-3.1-1.6c-1.5,0.9-3.3,1.7-5.6,2.3l-1-1.8c1.7-0.4,3.1-0.9,4.3-1.5c-0.7-0.3-1.7-0.7-2.9-1.2
			c0.6-0.9,1.1-1.8,1.5-2.6h-2.5v-1.9h3.2L-335.7,415z M-339.2,408.7h4.3v-4.1h2v4.1h3.9v1.9h-3.9v0.1c1.1,0.5,2.3,1,3.6,1.7
			l-1.1,1.7c-1.1-0.9-1.9-1.5-2.5-1.9v2.5h-2v-3.8c-0.7,1.6-2,3-3.7,4.3l-1.1-1.7c1.5-0.9,2.7-1.9,3.4-2.9h-2.8L-339.2,408.7
			L-339.2,408.7z M-337.2,405c0.5,0.8,0.9,1.7,1.4,2.7l-1.7,0.8c-0.5-1.1-1-2.1-1.5-2.9L-337.2,405z M-331.4,418.2h-3.4
			c-0.3,0.6-0.6,1.2-1,1.8c0.9,0.3,1.6,0.6,2.2,0.8C-332.6,420-331.9,419.2-331.4,418.2z M-329.2,405.7c-0.5,1-1,1.9-1.7,2.8
			l-1.6-0.8c0.6-0.9,1.1-1.8,1.6-2.8L-329.2,405.7z M-327,413.9c-0.4,0.9-0.8,1.7-1.1,2.3l-1.3-1.7c1.3-2.5,2.1-5.8,2.6-10l2.1,0.4
			c-0.2,1.2-0.3,2.2-0.5,2.9h5.7v2h-1.3c-0.1,3.7-0.8,6.8-2,9.3c1.1,1.8,2.5,3.3,4,4.3l-1.2,1.8c-1.4-1-2.7-2.4-3.8-4.1
			c-1.1,1.7-2.4,3.1-4,4.2l-1.1-1.8c1.7-1.1,3-2.6,4-4.4C-325.7,417.6-326.4,415.9-327,413.9z M-325.7,409.9l-0.3,1
			c0.5,2.3,1.2,4.3,2,6.1c0.7-2,1.1-4.4,1.2-7.1H-325.7z"/>
		<path id="XMLID_19_" class="st0" d="M-312.6,410.8h12.2v2c-1.5,1.1-3.1,2-4.7,2.9v1.1h8.7v2.1h-8.7v4.2c0,1.4-0.7,2.1-2.2,2.1
			h-2.8l-0.5-1.9c1,0,1.9,0,2.6,0c0.5,0,0.8-0.3,0.8-1v-3.4h-9.2v-2.1h9.2v-2c1.5-0.8,2.7-1.5,3.7-2.1h-9.1V410.8z M-296.8,406.7
			v5.3h-2.2v-3.2h-15v3.2h-2.2v-5.3h8.6c-0.4-0.8-0.7-1.5-1-2l2.5-0.4c0.4,0.8,0.7,1.6,0.9,2.4H-296.8z"/>
		<path id="XMLID_22_" class="st0" d="M-286.3,420.3c-2.3,1-4.7,1.9-7.1,2.5l-0.5-2.2c0.8-0.1,1.8-0.4,2.8-0.7v-7.5h-2.5v-2.1h2.5
			v-5.7h2.1v5.7h2.3v2.1h-2.3v6.8c0.8-0.3,1.7-0.7,2.7-1.1V420.3z M-273.8,408.1c0,5-0.1,8-0.4,9.1c-0.2,1-1.2,1.6-2.9,1.6h-0.2
			l-0.6-2.2c0.6,0,1,0,1.3,0c0.4,0,0.6-0.2,0.7-0.7s0.1-2.2,0.1-5l-2.6,0.7v8.8h-2v-8.3l-2.4,0.7v8.9c0,0.8,0.4,1.1,1.1,1.1h5.5
			c0.4,0,0.7-0.2,0.8-0.5c0.2-0.3,0.3-1.3,0.4-3l2,0.6c-0.2,2.4-0.5,3.8-0.9,4.2s-1.1,0.7-1.9,0.7h-6.6c-1.7,0-2.5-0.9-2.5-2.7v-8.7
			l-1.4,0.5v-2.1l1.4-0.4v-4.5h2.1v3.9l2.4-0.7v-5.5h2v4.9L-273.8,408.1z"/>
		<path id="XMLID_25_" class="st0" d="M-251.1,405.4v19.9h-2.1v-0.8h-14.6v0.8h-2.1v-19.9H-251.1z M-267.8,422.7h14.6v-15.4h-14.6
			V422.7z M-261,407.8c-0.1,0.3-0.3,0.6-0.4,1h5.8v1.4c-0.6,1.1-1.4,2.1-2.6,2.9c1.3,0.6,2.9,1.1,4.7,1.5l-1.1,1.6
			c-2.1-0.6-3.9-1.3-5.4-2c-1.7,0.8-3.8,1.5-6.3,2.1l-0.9-1.7c2.2-0.4,4.1-0.9,5.5-1.5c-0.7-0.5-1.3-1-1.9-1.6
			c-0.6,0.5-1.3,1-2.1,1.6l-1.2-1.6c2-1.1,3.3-2.5,4-4.1L-261,407.8z M-264.4,418.4c3,0.6,5.9,1.3,8.5,2.3l-0.7,1.7
			c-2.8-1-5.6-1.8-8.7-2.4L-264.4,418.4z M-262.1,415.4c1.9,0.6,3.5,1.2,4.9,1.9l-1,1.5c-1.6-0.9-3.2-1.5-4.9-2L-262.1,415.4z
			 M-257.8,410.4h-4.7c-0.1,0.1-0.1,0.1-0.1,0.1c0.8,0.7,1.6,1.3,2.5,1.8C-259.1,411.7-258.4,411.1-257.8,410.4z"/>
		<path id="XMLID_32_" class="st0" d="M-245.6,413.5c-0.7,0.9-1.3,1.6-1.9,2.3l-0.7-2.3c2.1-2.6,3.6-5.7,4.6-9.1l2,0.9
			c-0.5,1.7-1.2,3.3-2,4.8v15.3h-2.1L-245.6,413.5L-245.6,413.5z M-241.9,407.3h6.6c-0.3-0.8-0.6-1.5-1-2.2l2-0.6
			c0.5,1,0.8,1.9,1.1,2.8h6.1v2h-14.8L-241.9,407.3L-241.9,407.3z M-228.5,417.2v8.1h-2.1v-1.2h-7.7v1.2h-2v-8.1H-228.5z
			 M-239.8,410.7h10.8v1.9h-10.8V410.7z M-239.8,413.8h10.8v1.9h-10.8V413.8z M-238.3,422.2h7.6v-3h-7.6V422.2z"/>
		<path id="XMLID_39_" class="st0" d="M-220.8,419.2c-0.5,2.1-1.3,3.9-2.2,5.4l-1.8-1.1c0.9-1.4,1.6-3,2-4.7L-220.8,419.2z
			 M-221.7,406.1h5c0.3-0.5,0.5-1.1,0.6-1.7l2.2,0.3c-0.1,0.4-0.3,0.9-0.6,1.4h7.1v11.4h-14.4L-221.7,406.1L-221.7,406.1z
			 M-217.4,425c-1.5,0-2.2-0.7-2.2-2.1v-4.1h2.2v3.7c0,0.5,0.2,0.7,0.7,0.7h4.7c0.4,0,0.7-0.1,0.9-0.3c0.3-0.3,0.4-1.1,0.5-2.4
			l2,0.7c-0.2,1.9-0.5,3-1,3.5c-0.5,0.3-1.1,0.5-2,0.5h-5.8L-217.4,425L-217.4,425z M-219.6,409.4h10.3v-1.5h-10.3V409.4z
			 M-219.6,412.5h10.3v-1.4h-10.3V412.5z M-209.3,415.6v-1.5h-10.3v1.5H-209.3z M-214.4,417.8c1.2,1.2,2,2.2,2.5,2.9l-1.6,1.1
			c-0.6-1-1.5-2-2.5-3.1L-214.4,417.8z M-207.2,418.3c1.3,1.6,2.3,3.2,3.1,4.6l-1.7,1.2c-0.8-1.4-1.8-3-3.1-4.8L-207.2,418.3z"/>
		<path id="XMLID_48_" class="st0" d="M-201.5,410.5h3.5v-2.8c-1.3,0.2-2.3,0.3-3.1,0.4l-0.4-2c2.9-0.2,5.5-0.7,7.8-1.4l0.7,2
			c-1,0.3-1.9,0.5-2.9,0.7v3.1h2.9v2h-2.9v0.9c1.2,0.9,2.4,1.9,3.6,3.1l-1.2,1.8c-1.1-1.3-1.9-2.3-2.5-2.9v9.8h-2.2v-9.7
			c-0.9,2-1.9,3.8-3.3,5.4l-0.9-2.4c1.8-1.8,3.1-3.8,4-6.1h-3.3v-1.9H-201.5L-201.5,410.5z M-181.4,416.6l0.3,2.1l-2.1,0.3v6.3h-2.2
			v-5.9l-6.8,1.1l-0.3-2.1l7.1-1.1v-12.6h2.2v12.2L-181.4,416.6z M-190.6,411c1.6,1.1,2.9,2.2,4,3.4l-1.5,1.5c-1-1.1-2.3-2.2-4-3.5
			L-190.6,411z M-190,405.8c1.5,1.1,2.8,2.2,3.9,3.3l-1.5,1.5c-0.9-1-2.2-2.1-3.9-3.3L-190,405.8z"/>
		<path id="XMLID_53_" class="st0" d="M-178.2,425.1l-0.4-2c0.6,0.1,1.1,0.1,1.6,0.1s0.8-0.3,0.8-0.9v-4.8c-1,0.4-1.8,0.7-2.5,0.9
			l-0.5-2.1c1-0.2,2-0.5,3-0.9v-4.9h-2.5v-2h2.5v-3.9h2.1v3.9h2.2v2h-2.2v4c0.7-0.3,1.5-0.7,2.2-1.1v2.1c-0.6,0.3-1.3,0.7-2.2,1.1
			v6.2c0,1.5-0.7,2.2-2.2,2.2L-178.2,425.1L-178.2,425.1L-178.2,425.1z M-171.2,407.6h5.3v-3h2.1v3h5.3v2h-5.3v3.3h4.4v1.9
			c-0.7,2.4-1.9,4.4-3.6,6.1c1.4,1.1,3.1,2,5.1,2.7l-1.1,1.8c-2.1-0.9-3.9-2-5.5-3.2c-1.7,1.3-3.8,2.4-6.2,3.3l-1-1.8
			c2.3-0.7,4.2-1.7,5.7-2.8c-1.8-1.8-2.9-3.7-3.5-5.9h-1.2v-2h4.8v-3.2h-5.3V407.6L-171.2,407.6z M-167.6,414.9
			c0.5,1.8,1.5,3.3,3,4.7c1.4-1.4,2.4-2.9,3-4.7H-167.6z"/>
		<path id="XMLID_57_" class="st0" d="M-152.7,418c-0.2,3-0.8,5.5-1.8,7.4l-1.6-1.4c1-2,1.5-4.5,1.5-7.6v-11.2h7v17.9
			c0,1.4-0.7,2.1-2.2,2.1h-1.7l-0.5-1.9c0.6,0.1,1.2,0.1,1.6,0.1c0.6,0,0.8-0.4,0.8-1.1v-4.5h-3.1V418z M-149.5,410.7v-3.5h-3.1v3.5
			H-149.5z M-152.6,412.7v3.3h3.1v-3.3H-152.6z M-146.4,414h9.7v2c-0.5,2-1.5,3.8-2.8,5.2c1.2,0.9,2.7,1.7,4.3,2.3l-1.1,1.8
			c-1.8-0.8-3.4-1.8-4.6-2.8c-1.4,1.1-3.1,2.1-5.1,2.8l-1.2-1.8c1.8-0.6,3.4-1.5,4.7-2.5c-1.4-1.5-2.4-3.2-2.9-5.1h-1L-146.4,414
			L-146.4,414z M-145.2,405.3h7.4v4.6c0,0.5,0.2,0.7,0.7,0.7h1.6v2h-2.2c-1.5,0-2.2-0.7-2.2-2.2v-3.1h-3.2v1.1
			c0,2.2-0.8,3.9-2.5,5.2l-1.4-1.6c1.2-0.8,1.8-1.9,1.8-3.4L-145.2,405.3L-145.2,405.3z M-143.4,416c0.4,1.4,1.2,2.6,2.3,3.8
			c1-1.1,1.8-2.4,2.3-3.8H-143.4z"/>
		<path id="XMLID_64_" class="st0" d="M-126.1,405.3c-0.5,1.7-1.3,3.3-2.2,4.9v15.1h-2.2v-11.9c-0.7,0.9-1.4,1.7-2.1,2.4l-0.7-2.2
			c2.3-2.6,4.1-5.7,5.2-9.2L-126.1,405.3z M-125.3,415.2v-1.9c-0.3,0.4-0.6,0.7-0.9,1l-1.6-1.4c2.1-2,3.7-4.7,4.7-8.1l2,0.8
			c-1.1,3.1-2.4,5.7-4,7.6h10.1c0,5-0.1,8.2-0.3,9.4c-0.2,1.6-1.2,2.5-3,2.5l-2.4-0.1l-0.5-2c1.1,0.1,1.9,0.1,2.6,0.1
			s1.2-0.5,1.3-1.5c0.1-0.6,0.2-2.7,0.3-6.3h-3.4c-0.4,2.3-0.9,4.2-1.6,5.7c-0.8,1.6-2,3-3.6,4.3l-1.4-1.8c1.4-1.1,2.4-2.2,3.1-3.6
			c0.6-1.2,1.1-2.8,1.4-4.7H-125.3z M-117.4,404.5c1,3.2,2.7,5.8,5.2,7.8l-1.4,1.7c-2.7-2.2-4.6-5-5.6-8.5L-117.4,404.5z"/>
		<path id="XMLID_68_" class="st0" d="M-94.4,420.6h-8.4v4.7h-2v-11.2c-1.2,1.4-2.5,2.7-3.9,3.8l-1.4-1.8c2.6-2.1,4.7-4.5,6.2-7.1
			h-5.6v-2.1h6.6c0.3-0.7,0.6-1.5,0.9-2.5l2.2,0.2c-0.2,0.8-0.5,1.5-0.7,2.2h10.9v2.1h-11.8c-0.3,0.7-0.7,1.4-1.2,2.2h10.3v12.2
			c0,1.2-0.7,1.9-2.2,1.9H-97l-0.5-1.9c0.9,0.1,1.7,0.1,2.4,0.1c0.6,0,0.8-0.2,0.8-0.7L-94.4,420.6L-94.4,420.6z M-102.8,413v2h8.4
			v-2H-102.8z M-94.4,416.8h-8.4v1.9h8.4V416.8z"/>
		<path id="XMLID_72_" class="st0" d="M-86.3,405.3h7.3v1.7c-0.7,1.9-1.4,3.9-2.4,6.1c1.4,2.1,2.2,3.9,2.3,5.4c0,1-0.2,1.8-0.7,2.2
			c-0.7,0.6-1.8,0.9-3.5,0.9l-0.7-2.2c0.5,0.1,0.9,0.1,1.1,0.1c0.6,0,1-0.1,1.3-0.3c0.2-0.2,0.3-0.4,0.3-0.8c0-1.5-0.8-3.2-2.3-5.1
			c1-2.1,1.8-4.2,2.4-6.1h-3.1v18h-2L-86.3,405.3L-86.3,405.3z M-76.1,415.4v7c1.2-0.4,2.4-0.8,3.6-1.3l0.5,2
			c-1.7,0.7-3.8,1.4-6.2,2l-0.5-1.9c0.4-0.1,0.6-0.3,0.6-0.6v-17.3H-68v10.1h-4c0.2,1.1,0.6,2.2,1.2,3.2c1-0.6,1.9-1.4,2.8-2.5
			l1.4,1.4c-0.9,1.1-2,2-3.2,2.6c0.9,1.2,2.2,2.3,3.8,3.2l-1.2,1.9c-3.7-2.4-5.9-5.7-6.6-9.8C-73.8,415.4-76.1,415.4-76.1,415.4z
			 M-70.1,409.4v-2.1h-6v2.1H-70.1z M-76.1,411.4v2h6v-2H-76.1z"/>
		<path id="XMLID_77_" class="st0" d="M-56,405.6c-1.6,4.7-3.7,8.3-6.3,10.8l-1.7-1.5c2.7-2.5,4.7-5.9,6.1-10.1L-56,405.6z
			 M-49.5,416.7c1.6,2.4,2.9,5,4.1,7.7l-2,0.9c-0.3-0.8-0.6-1.6-0.9-2.2c-4,0.6-8.4,1.1-13,1.4l-0.4-2.1c1.6-0.5,3.8-3.9,6.7-10.2
			l2.1,0.7c-1.8,3.7-3.6,6.8-5.5,9.4c3.3-0.2,6.3-0.6,9.2-1c-0.7-1.5-1.5-2.8-2.2-4L-49.5,416.7z M-49.9,404.6
			c1.3,4.1,3.4,7.5,6.5,10l-1.5,1.8c-3.3-2.8-5.5-6.4-6.8-10.8L-49.9,404.6z"/>
		<path id="XMLID_81_" class="st0" d="M-40.7,409.8h14.2v2h-14.2V409.8z M-27.9,425.2l-0.5-2h3.2c0.5,0,0.8-0.4,0.8-1.2v-14.6h-15.1
			v-2.1h17.2v17.2c0,1.8-0.8,2.6-2.5,2.6L-27.9,425.2L-27.9,425.2z M-38.8,414h10.3v7.3h-10.3V414z M-30.6,419.5v-3.6h-6.2v3.5
			L-30.6,419.5L-30.6,419.5z"/>
	</g>
</g>
<g id="trangle1">
	<g id="XMLID_738_">
		<polygon id="XMLID_171_" class="st0" points="-214.9,354.9 -208.5,368.9 -202,383 -214.9,383 -227.8,383 -221.4,368.9 		"/>
	</g>
</g>
<g id="trangle2">
	<g id="XMLID_737_">
		<polygon id="XMLID_1_" class="st0" points="-141.8,354.9 -135.3,368.9 -128.9,383 -141.8,383 -154.7,383 -148.2,368.9 		"/>
	</g>
</g>
<g id="croix">
	<g id="Calque_2_1_">
		<g id="Calque_2">
			<path class="st0" d="M-259.6,353.1h-3.1V350c0-1-0.7-1.7-1.7-1.7s-1.7,0.8-1.7,1.7v3.1h-3.2c-1,0-1.7,0.8-1.7,1.7
				c0,1,0.8,1.7,1.7,1.7h3.2v3.2c0,1,0.8,1.7,1.7,1.7s1.7-0.7,1.7-1.7v-3.2h3.2c0.9,0,1.7-0.7,1.6-1.7
				C-257.9,353.8-258.7,353.1-259.6,353.1z"/>
		</g>
	</g>
</g>
</svg>
